<mxfile host="app.diagrams.net" modified="2024-02-04T09:59:31.205Z" agent="Mozilla/5.0 (Macintosh; Intel Mac OS X 10_15_7) AppleWebKit/537.36 (KHTML, like Gecko) Chrome/119.0.0.0 Safari/537.36" etag="tziE3zIxht0Byki5hejD" version="23.1.1" type="device">
  <diagram name="Page-1" id="bk8405Xq4WxsIvOCix3Z">
    <mxGraphModel dx="3860" dy="1209" grid="1" gridSize="10" guides="1" tooltips="1" connect="1" arrows="1" fold="1" page="1" pageScale="1" pageWidth="1654" pageHeight="1169" math="0" shadow="0">
      <root>
        <mxCell id="0" />
        <mxCell id="1" parent="0" />
        <mxCell id="l7UOVY1AqXZ824oUz1Hl-1" value="AWS Cloud" style="points=[[0,0],[0.25,0],[0.5,0],[0.75,0],[1,0],[1,0.25],[1,0.5],[1,0.75],[1,1],[0.75,1],[0.5,1],[0.25,1],[0,1],[0,0.75],[0,0.5],[0,0.25]];outlineConnect=0;gradientColor=none;html=1;whiteSpace=wrap;fontSize=12;fontStyle=0;container=1;pointerEvents=0;collapsible=0;recursiveResize=0;shape=mxgraph.aws4.group;grIcon=mxgraph.aws4.group_aws_cloud_alt;strokeColor=#232F3E;fillColor=none;verticalAlign=top;align=left;spacingLeft=30;fontColor=#232F3E;dashed=0;movable=1;resizable=1;rotatable=1;deletable=1;editable=1;locked=0;connectable=1;" parent="1" vertex="1">
          <mxGeometry x="-1110" y="350" width="890" height="490" as="geometry" />
        </mxCell>
        <mxCell id="l7UOVY1AqXZ824oUz1Hl-4" value="DNS &lt;br&gt;&amp;nbsp;Amazon Route 53" style="sketch=0;outlineConnect=0;fontColor=#232F3E;gradientColor=none;strokeColor=#ffffff;fillColor=#232F3E;dashed=0;verticalLabelPosition=middle;verticalAlign=bottom;align=center;html=1;whiteSpace=wrap;fontSize=10;fontStyle=1;spacing=3;shape=mxgraph.aws4.productIcon;prIcon=mxgraph.aws4.route_53;" parent="l7UOVY1AqXZ824oUz1Hl-1" vertex="1">
          <mxGeometry x="40" y="50" width="80" height="120" as="geometry" />
        </mxCell>
        <mxCell id="l7UOVY1AqXZ824oUz1Hl-6" value="Amazon Cognito" style="sketch=0;outlineConnect=0;fontColor=#232F3E;gradientColor=none;strokeColor=#ffffff;fillColor=#232F3E;dashed=0;verticalLabelPosition=middle;verticalAlign=bottom;align=center;html=1;whiteSpace=wrap;fontSize=10;fontStyle=1;spacing=3;shape=mxgraph.aws4.productIcon;prIcon=mxgraph.aws4.cognito;" parent="l7UOVY1AqXZ824oUz1Hl-1" vertex="1">
          <mxGeometry x="40" y="380" width="80" height="110" as="geometry" />
        </mxCell>
        <mxCell id="l7UOVY1AqXZ824oUz1Hl-7" value="AWS Lambda" style="sketch=0;outlineConnect=0;fontColor=#232F3E;gradientColor=none;strokeColor=#ffffff;fillColor=#232F3E;dashed=0;verticalLabelPosition=middle;verticalAlign=bottom;align=center;html=1;whiteSpace=wrap;fontSize=10;fontStyle=1;spacing=3;shape=mxgraph.aws4.productIcon;prIcon=mxgraph.aws4.lambda;" parent="l7UOVY1AqXZ824oUz1Hl-1" vertex="1">
          <mxGeometry x="560" y="110" width="80" height="100" as="geometry" />
        </mxCell>
        <mxCell id="l7UOVY1AqXZ824oUz1Hl-8" value="Amazon S3" style="sketch=0;outlineConnect=0;fontColor=#232F3E;gradientColor=none;strokeColor=#ffffff;fillColor=#232F3E;dashed=0;verticalLabelPosition=middle;verticalAlign=bottom;align=center;html=1;whiteSpace=wrap;fontSize=10;fontStyle=1;spacing=3;shape=mxgraph.aws4.productIcon;prIcon=mxgraph.aws4.s3;" parent="l7UOVY1AqXZ824oUz1Hl-1" vertex="1">
          <mxGeometry x="320" y="300" width="80" height="100" as="geometry" />
        </mxCell>
        <mxCell id="l7UOVY1AqXZ824oUz1Hl-9" value="Amazon API Gateway" style="sketch=0;outlineConnect=0;fontColor=#232F3E;gradientColor=none;strokeColor=#ffffff;fillColor=#232F3E;dashed=0;verticalLabelPosition=middle;verticalAlign=bottom;align=center;html=1;whiteSpace=wrap;fontSize=10;fontStyle=1;spacing=3;shape=mxgraph.aws4.productIcon;prIcon=mxgraph.aws4.api_gateway;" parent="l7UOVY1AqXZ824oUz1Hl-1" vertex="1">
          <mxGeometry x="320" y="110" width="80" height="110" as="geometry" />
        </mxCell>
        <mxCell id="l7UOVY1AqXZ824oUz1Hl-10" value="Amazon DynamoDB" style="sketch=0;outlineConnect=0;fontColor=#232F3E;gradientColor=none;strokeColor=#ffffff;fillColor=#232F3E;dashed=0;verticalLabelPosition=middle;verticalAlign=bottom;align=center;html=1;whiteSpace=wrap;fontSize=10;fontStyle=1;spacing=3;shape=mxgraph.aws4.productIcon;prIcon=mxgraph.aws4.dynamodb;" parent="l7UOVY1AqXZ824oUz1Hl-1" vertex="1">
          <mxGeometry x="800" y="105" width="80" height="110" as="geometry" />
        </mxCell>
        <mxCell id="l7UOVY1AqXZ824oUz1Hl-5" value="Amazon Cloudfront" style="sketch=0;outlineConnect=0;fontColor=#232F3E;gradientColor=none;strokeColor=#ffffff;fillColor=#232F3E;dashed=0;verticalLabelPosition=middle;verticalAlign=bottom;align=center;html=1;whiteSpace=wrap;fontSize=10;fontStyle=1;spacing=3;shape=mxgraph.aws4.productIcon;prIcon=mxgraph.aws4.cloudfront;" parent="l7UOVY1AqXZ824oUz1Hl-1" vertex="1">
          <mxGeometry x="40" y="220" width="80" height="110" as="geometry" />
        </mxCell>
        <mxCell id="l7UOVY1AqXZ824oUz1Hl-2" value="" style="sketch=0;outlineConnect=0;fontColor=#232F3E;gradientColor=none;fillColor=#232F3D;strokeColor=none;dashed=0;verticalLabelPosition=bottom;verticalAlign=top;align=center;html=1;fontSize=12;fontStyle=0;aspect=fixed;pointerEvents=1;shape=mxgraph.aws4.user;" parent="1" vertex="1">
          <mxGeometry x="-1560" y="570" width="78" height="78" as="geometry" />
        </mxCell>
        <mxCell id="l7UOVY1AqXZ824oUz1Hl-3" value="" style="shadow=0;dashed=0;html=1;strokeColor=none;fillColor=#4495D1;labelPosition=center;verticalLabelPosition=bottom;verticalAlign=top;align=center;outlineConnect=0;shape=mxgraph.veeam.one_client;" parent="1" vertex="1">
          <mxGeometry x="-1350" y="578.2" width="90.8" height="61.6" as="geometry" />
        </mxCell>
        <mxCell id="l7UOVY1AqXZ824oUz1Hl-11" value="" style="endArrow=classic;html=1;rounded=0;" parent="1" source="l7UOVY1AqXZ824oUz1Hl-2" target="l7UOVY1AqXZ824oUz1Hl-3" edge="1">
          <mxGeometry width="50" height="50" relative="1" as="geometry">
            <mxPoint x="-860" y="630" as="sourcePoint" />
            <mxPoint x="-810" y="580" as="targetPoint" />
          </mxGeometry>
        </mxCell>
        <mxCell id="l7UOVY1AqXZ824oUz1Hl-12" value="" style="endArrow=classic;startArrow=classic;html=1;rounded=0;" parent="1" edge="1">
          <mxGeometry width="50" height="50" relative="1" as="geometry">
            <mxPoint x="-1290" y="570" as="sourcePoint" />
            <mxPoint x="-1070" y="440" as="targetPoint" />
            <Array as="points">
              <mxPoint x="-1290" y="440" />
            </Array>
          </mxGeometry>
        </mxCell>
        <mxCell id="l7UOVY1AqXZ824oUz1Hl-14" value="" style="endArrow=classic;startArrow=classic;html=1;rounded=0;" parent="1" edge="1">
          <mxGeometry width="50" height="50" relative="1" as="geometry">
            <mxPoint x="-1250" y="610" as="sourcePoint" />
            <mxPoint x="-1070" y="610" as="targetPoint" />
          </mxGeometry>
        </mxCell>
        <mxCell id="l7UOVY1AqXZ824oUz1Hl-15" value="" style="endArrow=classic;startArrow=classic;html=1;rounded=0;" parent="1" edge="1">
          <mxGeometry width="50" height="50" relative="1" as="geometry">
            <mxPoint x="-1070" y="765" as="sourcePoint" />
            <mxPoint x="-1300" y="650" as="targetPoint" />
            <Array as="points">
              <mxPoint x="-1300" y="765" />
            </Array>
          </mxGeometry>
        </mxCell>
        <mxCell id="l7UOVY1AqXZ824oUz1Hl-16" value="Resolve DNS" style="text;html=1;align=center;verticalAlign=middle;resizable=0;points=[];autosize=1;strokeColor=none;fillColor=none;" parent="1" vertex="1">
          <mxGeometry x="-1240" y="410" width="100" height="30" as="geometry" />
        </mxCell>
        <mxCell id="l7UOVY1AqXZ824oUz1Hl-17" value="Connect to CloudFront Distribution" style="text;html=1;align=center;verticalAlign=middle;resizable=0;points=[];autosize=1;strokeColor=none;fillColor=none;" parent="1" vertex="1">
          <mxGeometry x="-1270" y="578.2" width="210" height="30" as="geometry" />
        </mxCell>
        <mxCell id="l7UOVY1AqXZ824oUz1Hl-18" value="Authentication" style="text;html=1;align=center;verticalAlign=middle;resizable=0;points=[];autosize=1;strokeColor=none;fillColor=none;" parent="1" vertex="1">
          <mxGeometry x="-1240" y="740" width="100" height="30" as="geometry" />
        </mxCell>
        <mxCell id="l7UOVY1AqXZ824oUz1Hl-20" value="" style="endArrow=classic;startArrow=classic;html=1;rounded=0;" parent="1" edge="1">
          <mxGeometry width="50" height="50" relative="1" as="geometry">
            <mxPoint x="-980" y="610" as="sourcePoint" />
            <mxPoint x="-800" y="500" as="targetPoint" />
            <Array as="points">
              <mxPoint x="-830" y="610" />
              <mxPoint x="-830" y="500" />
            </Array>
          </mxGeometry>
        </mxCell>
        <mxCell id="l7UOVY1AqXZ824oUz1Hl-22" value="" style="endArrow=classic;html=1;rounded=0;" parent="1" edge="1">
          <mxGeometry width="50" height="50" relative="1" as="geometry">
            <mxPoint x="-830" y="610" as="sourcePoint" />
            <mxPoint x="-800" y="690" as="targetPoint" />
            <Array as="points">
              <mxPoint x="-830" y="610" />
              <mxPoint x="-830" y="690" />
            </Array>
          </mxGeometry>
        </mxCell>
        <mxCell id="l7UOVY1AqXZ824oUz1Hl-23" value="path: /api" style="text;html=1;align=center;verticalAlign=middle;resizable=0;points=[];autosize=1;strokeColor=none;fillColor=none;" parent="1" vertex="1">
          <mxGeometry x="-895" y="540" width="70" height="30" as="geometry" />
        </mxCell>
        <mxCell id="l7UOVY1AqXZ824oUz1Hl-24" value="path: /" style="text;html=1;align=center;verticalAlign=middle;resizable=0;points=[];autosize=1;strokeColor=none;fillColor=none;" parent="1" vertex="1">
          <mxGeometry x="-890" y="648" width="60" height="30" as="geometry" />
        </mxCell>
        <mxCell id="l7UOVY1AqXZ824oUz1Hl-26" value="" style="endArrow=classic;html=1;rounded=0;" parent="1" edge="1">
          <mxGeometry width="50" height="50" relative="1" as="geometry">
            <mxPoint x="-700" y="500" as="sourcePoint" />
            <mxPoint x="-560" y="500" as="targetPoint" />
          </mxGeometry>
        </mxCell>
        <mxCell id="l7UOVY1AqXZ824oUz1Hl-28" value="" style="endArrow=classic;html=1;rounded=0;" parent="1" edge="1">
          <mxGeometry width="50" height="50" relative="1" as="geometry">
            <mxPoint x="-460" y="500" as="sourcePoint" />
            <mxPoint x="-320" y="500" as="targetPoint" />
          </mxGeometry>
        </mxCell>
        <mxCell id="J9EUw5Y67qE4LBxg6LF6-1" value="&lt;font style=&quot;font-size: 20px;&quot;&gt;&lt;b&gt;Chau Huu Phat&lt;br&gt;(Phillip Chau)&lt;/b&gt;&lt;/font&gt;" style="text;html=1;align=center;verticalAlign=middle;resizable=0;points=[];autosize=1;strokeColor=none;fillColor=none;" vertex="1" parent="1">
          <mxGeometry x="-1560" y="780" width="170" height="60" as="geometry" />
        </mxCell>
        <mxCell id="J9EUw5Y67qE4LBxg6LF6-2" value="&lt;span style=&quot;font-size: 20px;&quot;&gt;&lt;b&gt;Serverless Architecture&lt;/b&gt;&lt;/span&gt;" style="text;html=1;align=center;verticalAlign=middle;resizable=0;points=[];autosize=1;strokeColor=#666666;fillColor=#f5f5f5;fontColor=#333333;" vertex="1" parent="1">
          <mxGeometry x="-1550" y="290" width="250" height="40" as="geometry" />
        </mxCell>
      </root>
    </mxGraphModel>
  </diagram>
</mxfile>
